<?xml version="1.0" encoding="UTF-8" standalone="no"?>
<svg
   version="1.0"
   width="118.79573pt"
   height="25.988653pt"
   viewBox="0 0 593.97862 129.94327"
   preserveAspectRatio="xMidYMid"
   id="svg2"
   xmlns="http://www.w3.org/2000/svg"
   xmlns:svg="http://www.w3.org/2000/svg">
  <defs
     id="defs2" />
  <g
     transform="matrix(0.1,0,0,-0.1,-65.95,307.4682)"
     fill="#000000"
     stroke="none"
     id="g2">
    <path
       d="m 1907,3058 c -122,-191 -375,-658 -413,-758 -114,-306 80,-660 403,-736 54,-13 93,-15 183,-9 247,16 286,8 378,-78 67,-64 242,-356 242,-405 0,-24 -346,37 -433,76 l -61,28 -47,-71 c -27,-39 -71,-92 -98,-118 l -50,-47 52,-30 c 173,-99 428,-143 905,-157 214,-6 237,-3 213,23 -4,5 -50,99 -100,209 -240,520 -357,696 -532,798 -108,64 -184,82 -324,79 -66,-2 -154,-4 -195,-5 -158,-4 -280,122 -268,277 5,63 135,346 159,346 18,0 189,-362 207,-437 l 17,-73 h 78 c 43,0 110,-7 148,-16 39,-9 72,-14 73,-12 9,9 -18,161 -40,226 -49,147 -160,366 -346,687 -146,250 -133,232 -151,203 z"
       class=""
       id="path1"
       style="fill:#626f47;fill-opacity:1;stroke:#637048;stroke-opacity:1" />
    <path
       d="m 1329,1819 c -86,-56 -214,-186 -277,-284 -71,-109 -392,-749 -392,-781 0,-16 492,7 690,32 454,58 762,281 830,602 16,77 20,73 -70,61 -49,-6 -101,-6 -148,1 -40,5 -75,10 -78,10 -2,0 -4,-8 -4,-18 0,-37 -62,-142 -107,-182 -68,-59 -205,-125 -315,-149 -108,-25 -318,-51 -318,-40 0,12 127,246 167,307 53,81 159,183 220,211 l 52,24 -35,40 c -44,48 -113,153 -120,184 -8,32 -21,29 -95,-18 z"
       class=""
       id="path2"
       style="fill:#f0bb78;fill-opacity:1;stroke:#f0bb78;stroke-opacity:1" />
    <text
       xml:space="preserve"
       style="font-size:2400px;writing-mode:lr-tb;direction:ltr;fill:#637048;fill-opacity:1;stroke:#f0bb78;stroke-width:7.5;stroke-opacity:1"
       x="3372.1223"
       y="-1038.766"
       id="text3"
       transform="scale(1,-1)"><tspan
         id="tspan3"
         style="font-style:normal;font-variant:normal;font-weight:bold;font-stretch:normal;font-size:2400px;font-family:TimeBurner;-inkscape-font-specification:TimeBurner;fill:#637048;fill-opacity:1;stroke:#a4b465;stroke-width:7.5;stroke-opacity:1"
         x="3372.1223"
         y="-1038.766">AerynOS</tspan></text>
  </g>
</svg>
